# xmcd CD database file
#
# Track frame offsets:
#	150
#	14042
#	32710
#	56351
#	71620
#	104575
#	125011
#	142792
#	166672
#	187626
#	206086
#
# Disc length: 2906 seconds
#
# Revision: 0
# Processed by: cddbd v1.5PL3 Copyright (c) Steve Scherf et al.
# Submitted via: CDex 1.51
#
DISCID=930b580b
DTITLE=Karelia Love Forest - Diamond Garden
DYEAR=2002
DGENRE=Japanese Pop
TTITLE0=Forest of Cries 〜嘆きの森〜
TTITLE1=Red Dawn
TTITLE2=Mirage
TTITLE3=Ambivalense
TTITLE4=Pandora's Box
TTITLE5=Candle
TTITLE6=Twilight Angel
TTITLE7=Diamond Destiny
TTITLE8=Phoenix
TTITLE9=Silhouette Dance
TTITLE10=Relia 〜永遠に愛を〜
EXTD=YEAR: 2002
EXTT0=
EXTT1=
EXTT2=
EXTT3=
EXTT4=
EXTT5=
EXTT6=
EXTT7=
EXTT8=
EXTT9=
EXTT10=
PLAYORDER=
